<svg width="80" height="18" viewBox="0 0 80 18" fill="none" xmlns="http://www.w3.org/2000/svg">
<g id="express-icon">
<path id="Vector" d="M24.8123 18V0.352113H25.7616V3.12814C25.8738 3.00505 25.9773 2.8743 26.0715 2.73682C26.8644 1.07809 28.5369 0.0312419 30.3627 0.0519186C32.5273 -0.0131745 34.2863 0.794746 35.32 2.73682C35.9778 3.94332 36.3398 5.29098 36.3757 6.66728C36.4116 8.04358 36.1205 9.40858 35.5266 10.6483C34.5635 12.8247 32.1848 13.9068 29.6382 13.5093C28.8456 13.4414 28.0826 13.1744 27.4187 12.7327C26.7548 12.291 26.2112 11.6887 25.8376 10.9807V17.9992L24.8123 18ZM25.7616 6.59492L25.9743 8.66718C26.3495 11.0258 27.7326 12.4196 29.904 12.6815C30.9237 12.8506 31.97 12.6578 32.8646 12.1361C33.7591 11.6144 34.4465 10.796 34.8096 9.82048C35.6542 7.79111 35.5919 5.4937 34.6425 3.51181C34.255 2.63733 33.5957 1.91379 32.7642 1.45055C31.9328 0.987308 30.9744 0.809528 30.0339 0.944078C29.151 1.00883 28.3101 1.34921 27.628 1.91792C26.9458 2.48663 26.4562 3.25544 26.2272 4.11756C26.025 4.9334 25.8696 5.7603 25.7616 6.59416V6.59492ZM55.7606 8.99341C55.6166 10.236 55.0299 11.3835 54.1097 12.2227C53.1895 13.0618 51.9983 13.5353 50.7577 13.5553C46.7764 13.7575 44.908 11.0917 44.611 8.01549C44.4045 6.34494 44.6735 4.64962 45.3865 3.12738C45.8827 2.08312 46.6958 1.22528 47.708 0.67812C48.7201 0.130961 49.8787 -0.0770978 51.0159 0.0840821C52.0971 0.176739 53.1219 0.609874 53.9455 1.32219C54.769 2.0345 55.3495 2.98992 55.6049 4.05323C55.8071 5.02184 55.956 6.00102 56.0507 6.98625H45.5946C45.4009 9.7753 46.8873 12.0176 48.9941 12.5582C51.6182 13.2091 53.861 12.0627 54.6752 9.54709C54.856 8.90152 55.1856 8.81039 55.7674 8.99341H55.7606ZM45.587 6.09332H54.9395C54.8811 3.12202 53.0461 0.962456 50.5572 0.93795C47.747 0.892002 45.7093 2.96503 45.587 6.09332ZM57.6935 9.05851H58.6102C58.6439 9.73948 58.8632 10.3979 59.2441 10.9613C59.6249 11.5247 60.1525 11.9713 60.7687 12.2519C61.5426 12.603 62.385 12.7737 63.2333 12.7511C64.0816 12.7286 64.9139 12.5135 65.6683 12.1217C66.0796 11.935 66.424 11.6255 66.6552 11.2351C66.8864 10.8446 66.9931 10.392 66.961 9.93841C66.9847 9.50096 66.8662 9.06766 66.6236 8.70421C66.381 8.34075 66.0275 8.06696 65.6167 7.92436C64.608 7.54605 63.5356 7.33775 62.508 7.00539C61.4387 6.69843 60.3931 6.31297 59.3796 5.8521C57.7239 5.03728 57.6214 1.8638 59.4958 0.859074C60.4556 0.312988 61.5357 0.0179237 62.6377 0.000801675C63.7396 -0.0163204 64.8282 0.245045 65.8043 0.761051C67.0149 1.43496 67.684 2.79578 67.485 4.17652H66.699C66.699 4.13823 66.6276 4.10454 66.6276 4.06548C66.5303 1.53834 64.4235 0.748031 62.1617 0.970114C61.4781 1.04669 60.8303 1.25499 60.2227 1.56284C59.8574 1.73103 59.553 2.00952 59.3517 2.35979C59.1503 2.71005 59.0618 3.11477 59.0986 3.51793C59.0994 3.9214 59.2241 4.31473 59.4555 4.64384C59.687 4.97295 60.0139 5.22169 60.3913 5.35586C61.3786 5.72115 62.4267 5.95548 63.4483 6.24189L65.9167 6.89282C66.4777 7.0785 66.9696 7.43152 67.3274 7.90519C67.6851 8.37885 67.8919 8.95086 67.9202 9.54556C68.1177 10.8819 67.4418 12.1952 66.2463 12.804C64.0878 14.0354 60.5325 13.71 58.949 12.1531C58.1386 11.3314 57.6867 10.2156 57.6958 9.05774L57.6935 9.05851ZM79.5521 4.17729H78.6923C78.6923 4.06012 78.6467 3.94755 78.6338 3.85795C78.6201 3.20815 78.3852 2.58285 77.9686 2.08691C77.5519 1.59097 76.9789 1.25453 76.3454 1.134C75.1506 0.788444 73.876 0.85036 72.7196 1.31013C72.2623 1.44207 71.8597 1.71971 71.5719 2.10152C71.2842 2.48333 71.1267 2.9488 71.1231 3.42834C71.1067 3.89919 71.2521 4.3613 71.5347 4.73652C71.8173 5.11174 72.2197 5.37705 72.674 5.48758L76.6037 6.50456C77.0286 6.60733 77.4471 6.7357 77.8568 6.88899C79.11 7.34847 79.9607 8.52168 79.9987 9.8626C80.0174 10.519 79.8389 11.1657 79.4865 11.7179C79.134 12.27 78.6242 12.7018 78.0239 12.9564C77.1119 13.3742 76.1233 13.5952 75.1216 13.6054C74.1199 13.6155 73.1271 13.4146 72.2069 13.0154C71.4501 12.6864 70.8115 12.1315 70.377 11.4254C69.9424 10.7193 69.7329 9.89596 69.7765 9.06616H70.6165C70.9324 10.6016 71.9783 11.8805 73.413 12.4855C74.8477 13.0904 76.4859 12.9419 77.7908 12.0903C78.1823 11.885 78.5072 11.571 78.7272 11.1852C78.9471 10.7995 79.0528 10.3583 79.0318 9.91391C79.0513 9.47615 78.9286 9.04394 78.6825 8.68282C78.4363 8.3217 78.08 8.05138 77.6677 7.91287C76.6591 7.53456 75.5867 7.33316 74.5591 6.99391C73.4838 6.69167 72.4319 6.31056 71.4117 5.85363C69.7955 5.05183 69.6664 1.90439 71.5089 0.900426C72.4806 0.331423 73.5818 0.0257398 74.7054 0.0131252C75.829 0.000510544 76.9367 0.281394 77.9206 0.828441C78.4835 1.16712 78.9365 1.6635 79.2245 2.25713C79.5126 2.85076 79.6232 3.51603 79.5429 4.17193L79.5521 4.17729ZM23.25 13.2367C22.9115 13.3658 22.538 13.3654 22.1998 13.2358C21.8616 13.1061 21.5822 12.8561 21.4142 12.5329L18.0724 7.87305L17.5879 7.22212L13.7098 12.5398C13.5518 12.8491 13.2875 13.0898 12.9663 13.2169C12.6451 13.344 12.289 13.3489 11.9645 13.2306L16.9605 6.4724L12.3123 0.365897C13.002 0.114714 13.7706 0.38734 14.1541 1.01683L17.6175 5.73416L21.1013 1.03521C21.2606 0.731249 21.525 0.496905 21.8445 0.376745C22.1639 0.256586 22.516 0.258994 22.8338 0.383511L21.0299 2.79655L18.5866 6.00296C18.5188 6.06402 18.4645 6.13883 18.4274 6.2225C18.3902 6.30617 18.371 6.39681 18.371 6.48848C18.371 6.58015 18.3902 6.67079 18.4274 6.75445C18.4645 6.83812 18.5188 6.91294 18.5866 6.974L23.2401 13.2367H23.25ZM44.4629 0.300805V1.21977C43.8092 1.17653 43.1538 1.27199 42.5389 1.49997C41.924 1.72795 41.3634 2.08339 40.8932 2.54335C40.423 3.00331 40.0536 3.55757 39.809 4.17035C39.5644 4.78314 39.4499 5.44083 39.473 6.10098C39.473 8.24727 39.473 10.3936 39.473 12.5398V13.2696H38.5487V0.358239H39.4601V3.00408C40.5781 1.07426 42.3037 0.35824 44.469 0.306165L44.4629 0.300805ZM0.00151926 6.38816L0.408614 4.36108C1.52661 0.352879 6.08363 -1.31504 9.21887 1.16769C11.0546 2.62118 11.5126 4.68042 11.423 7.0008H1.08078C0.913684 11.1453 3.87955 13.648 7.67328 12.3706C8.92342 11.9111 9.86445 10.8635 10.1743 9.56164C10.3748 8.91071 10.706 8.7989 11.3121 8.98729C11.211 9.78076 10.9328 10.5408 10.4984 11.2102C10.064 11.8797 9.48477 12.4411 8.80418 12.8523C7.67978 13.4723 6.38973 13.718 5.1185 13.5542C3.84727 13.3903 2.65997 12.8254 1.72635 11.9402C0.802797 10.8934 0.24532 9.57006 0.136711 8.17247C0.136711 7.94273 0.0607606 7.72831 0.00759522 7.52154C0.00253186 7.13507 0 6.75727 0 6.38816H0.00151926ZM1.09369 6.10787H10.4462C10.3877 3.10364 8.50721 0.972412 5.99933 0.952501C3.20739 0.914211 1.20989 2.99872 1.08685 6.09486L1.09369 6.10787Z" fill="#FFFAFA"/>
</g>
</svg>
